<svg height="143" width="456" xmlns="http://www.w3.org/2000/svg"><g fill="none" fill-rule="evenodd"><path d="M71.5 20C99.943 20 123 43.057 123 71.5S99.943 123 71.5 123 20 99.943 20 71.5 43.057 20 71.5 20zM61 54v33l27-16.5z" fill="#e62c27"/><path d="M159.605 113.007V89.785h.168c1.708 2.156 3.78 3.821 6.215 4.997 2.436 1.176 5.11 1.764 8.02 1.764 2.856 0 5.544-.511 8.063-1.533s4.696-2.442 6.53-4.262c1.834-1.82 3.282-4.06 4.346-6.719s1.596-5.557 1.596-8.692c0-4.087-.875-7.783-2.625-11.086s-4.192-5.9-7.327-7.79c-3.136-1.89-6.649-2.834-10.54-2.834-2.856 0-5.508.574-7.958 1.722-2.45 1.147-4.542 2.799-6.278 4.955h-.168v-6.173h-6.97v58.873zm13.732-22.844a13.39 13.39 0 01-5.291-1.07 14.13 14.13 0 01-4.451-2.982c-1.288-1.274-2.31-2.842-3.066-4.703-.756-1.862-1.133-3.87-1.133-6.026 0-2.828.601-5.417 1.805-7.769 1.204-2.351 2.87-4.206 4.997-5.564s4.48-2.036 7.055-2.036c4.06 0 7.44 1.413 10.141 4.24 2.702 2.828 4.052 6.538 4.052 11.129 0 4.283-1.301 7.817-3.905 10.603-2.603 2.785-6.005 4.178-10.204 4.178zm43.16 22.844l23.684-58.873h-7.391l-12.64 31.872h-.21l-13.605-31.872h-7.433l17.68 40.228-7.476 18.645zM261.8 96.546c1.54 0 2.981-.133 4.325-.399 1.344-.266 2.422-.574 3.233-.924s1.666-.777 2.562-1.28l-1.848-6.09c-2.491 1.428-4.843 2.142-7.054 2.142-1.904 0-3.234-.595-3.99-1.785-.756-1.19-1.133-3.1-1.133-5.731V60.18h13.857v-6.047h-13.857V39.059l-6.971.755v14.32h-5.333v6.047h5.333v23.347c0 8.679 3.625 13.018 10.876 13.018zm35.265 0c2.716 0 5.277-.644 7.685-1.932 2.408-1.288 4.437-3.135 6.089-5.543h.126V96h6.97V54.134h-6.97v20.282c0 2.408-.336 4.62-1.008 6.635s-1.575 3.674-2.708 4.976-2.45 2.31-3.948 3.023-3.086 1.071-4.766 1.071c-3.443 0-6.005-1.015-7.684-3.044-1.68-2.03-2.52-5.368-2.52-10.015V54.134h-6.97v24.943c0 5.823 1.378 10.19 4.136 13.102 2.757 2.911 6.613 4.367 11.568 4.367zm56.22 0c2.856 0 5.543-.511 8.063-1.533 2.52-1.022 4.696-2.442 6.53-4.262 1.833-1.82 3.282-4.06 4.346-6.719s1.595-5.557 1.595-8.692c0-4.087-.874-7.783-2.624-11.086s-4.192-5.9-7.328-7.79c-3.135-1.89-6.649-2.834-10.54-2.834-2.883 0-5.564.574-8.041 1.722s-4.584 2.813-6.32 4.997h-.168V32.676h-6.97V96h6.676v-6.635h.126c1.708 2.296 3.814 4.066 6.32 5.312 2.505 1.246 5.284 1.869 8.335 1.869zm-.672-6.383c-1.875 0-3.667-.357-5.375-1.07a14.003 14.003 0 01-4.493-2.982c-1.288-1.274-2.31-2.842-3.065-4.703-.756-1.862-1.134-3.87-1.134-6.026 0-2.828.602-5.417 1.806-7.769 1.203-2.351 2.876-4.206 5.018-5.564 2.141-1.357 4.528-2.036 7.16-2.036 4.059 0 7.439 1.413 10.14 4.24 2.702 2.828 4.053 6.538 4.053 11.129 0 4.283-1.302 7.817-3.906 10.603-2.603 2.785-6.004 4.178-10.204 4.178zm51.139 6.383c3.667 0 6.936-.707 9.805-2.12 2.87-1.414 5.242-3.34 7.118-5.775l-4.871-4.157a15.888 15.888 0 01-5.081 4.094c-1.988 1.022-4.228 1.533-6.72 1.533-3.75 0-6.9-1.169-9.447-3.506-2.548-2.338-4.046-5.452-4.493-9.344h32.166c.14-.84.21-1.791.21-2.855 0-3.975-.805-7.538-2.415-10.687-1.61-3.15-3.898-5.62-6.866-7.412-2.967-1.791-6.369-2.687-10.204-2.687-2.8 0-5.43.532-7.894 1.596-2.464 1.063-4.585 2.526-6.362 4.388-1.778 1.861-3.185 4.129-4.22 6.803-1.036 2.673-1.554 5.563-1.554 8.67 0 3.136.532 6.048 1.596 8.735s2.52 4.955 4.367 6.803 4.052 3.296 6.614 4.346c2.561 1.05 5.312 1.575 8.251 1.575zm11.758-25.07h-25.28c.644-3.499 2.163-6.277 4.557-8.335 2.393-2.058 5.242-3.086 8.545-3.086 3.275 0 5.984 1.035 8.126 3.107s3.492 4.843 4.052 8.315z" fill="#2a3134" fill-rule="nonzero"/></g></svg>